<?xml version="1.0" encoding="utf-8"?>
<!-- Generator: Adobe Illustrator 18.1.1, SVG Export Plug-In . SVG Version: 6.00 Build 0)  -->
<svg version="1.1" id="Layer_1" xmlns="http://www.w3.org/2000/svg" xmlns:xlink="http://www.w3.org/1999/xlink" x="0px" y="0px"
	 viewBox="300 0 1320.3 1080" enable-background="new 300 0 1320.3 1080" xml:space="preserve">
<g>
	<g>
		<path fill="#FFFFFF" d="M1166,78C1016.9-30.1,797.2-25.3,653.1,88.9C552,169.2,510.4,291.8,546.8,404.7c29,89.4,34.4,176.7-19,264
			c62.4-6.8,118.3-23.3,168.5-54.3c18.3-11.3,31.9-10.4,50.9-2.9c141.6,56.1,279.2,46.6,407.4-36.6
			C1343.6,452.2,1348.1,210.2,1166,78z"/>
		<path fill="#FFFFFF" d="M1352.4,640.9c1.6-26,6.6-52.3,13.8-77.4c19.9-67.6,8.8-128.9-32.6-187.8c-59,204.3-206.1,287.8-407,308.1
			c94.8,55.9,187.8,65.4,284.8,30.5c15.4-5.7,26.9-5,42.8,1.6c35.1,14.3,72.2,24,108.8,34.4c7.7,2,16.7-0.9,29.4-1.8
			C1363,714.4,1349.9,679.6,1352.4,640.9z"/>
	</g>
</g>
<g>
	<path fill="#FFFFFF" d="M500.9,1075.7h-15.6V866.9l-76.7,208.8h-16.3l-76.7-208.8v208.8H300V838.6h22.6l77.8,215.4l78.3-215.4h22.2
		V1075.7z"/>
	<path fill="#FFFFFF" d="M652.7,1053.1c-3.8,5-7.9,9.3-12.7,12.7c-4.8,3.4-9.5,6.1-14.5,8.1s-9.7,3.6-14.5,4.5
		c-4.8,0.9-9,1.4-12.7,1.4c-31,0-46.4-20.4-46.4-61.3V907.6h15.6v109.3c0,15.8,2.7,27.1,7.9,34.6c5.2,7.2,14.5,10.9,27.4,10.9
		c9.3,0,18.1-2.9,26.5-8.6c8.1-5.9,16.1-14,23.5-24.7V907.6h15.6v167.9h-15.6v-22.4H652.7z"/>
	<path fill="#FFFFFF" d="M734.8,1075.7h-15.6V838.6h15.6V1075.7z"/>
	<path fill="#FFFFFF" d="M834.6,1077.3c-2.3,0.2-4.5,0.5-6.6,0.7c-2.3,0.2-4.5,0.2-6.6,0.2c-6.8,0-12.2-1.1-16.3-3.2
		c-4.1-2-7.2-5.2-9.3-9.5c-2-4.1-3.6-9.5-4.3-15.6c-0.7-6.3-0.9-13.6-0.9-21.9V925.3h-19.2v-17.4h19.2V864h15.6v43.9h24.7v17.4
		h-24.7v104.1c0,7,0.5,12.4,1.4,16.5s2.3,7.2,4.1,9.5c1.8,2.3,4.1,3.6,6.8,4.3c2.7,0.7,5.7,0.9,9,0.9c1.4,0,2.7,0,3.6,0
		c1.1,0,2.3,0,3.6-0.2v17H834.6z"/>
	<path fill="#FFFFFF" d="M885.5,1075.7h-15.6V907.8h15.6V1075.7z M885.7,865.8h-15.6v-27.1h15.6V865.8z"/>
	<path fill="#FFFFFF" d="M1178.6,902c-1.4-7-4.1-13.6-7.9-19.9c-3.8-6.1-8.8-11.5-14.7-16.1c-5.9-4.5-12.7-8.1-20.1-10.6
		c-7.7-2.5-15.8-3.8-24.4-3.8c-12.4,0-23.5,2.3-33.7,6.8c-10.2,4.5-18.6,11.1-25.8,19.9c-7,8.8-12.4,19.7-16.3,32.8
		c-3.8,13.1-5.7,28.3-5.7,45.5c0,17.2,1.8,32.6,5.7,45.7c3.8,13.1,9.3,24.2,16.3,33.3c7,9,15.6,15.8,25.6,20.4c10,4.5,21,7,33.3,7
		c18.6,0,33.7-4.5,45.7-13.8c12-9.3,19.5-22.6,22.2-40.3h16.1c-1.6,11.3-4.8,21.3-9.5,30.3c-4.8,8.8-10.9,16.3-18.1,22.4
		c-7.2,6.1-15.6,10.6-25.1,13.8c-9.5,3.2-19.7,4.8-30.8,4.8c-15.2,0-28.5-2.9-40.7-8.8c-12-5.9-22.2-14-30.8-24.9
		c-8.4-10.6-14.9-23.5-19.5-38.9c-4.5-15.2-6.8-32.4-6.8-51.1s2.3-35.7,6.8-50.7s11.1-27.8,19.7-38.5c8.6-10.6,18.8-18.8,30.8-24.4
		s25.6-8.6,40.5-8.6c10.2,0,20.1,1.6,29.4,5s17.6,7.9,25.1,14c7.5,5.9,13.6,13.1,18.8,21.5c5,8.4,8.6,17.4,10.6,27.4L1178.6,902
		L1178.6,902z"/>
	<path fill="#FFFFFF" d="M1255.6,932.7c5-6.1,9.7-11.3,14.5-15.2c4.8-3.8,9.3-6.8,13.8-8.8c4.5-2,8.8-3.4,12.9-4.1s7.9-1.1,11.5-1.1
		c31,0,46.6,20.4,46.6,61.1v111.1h-15.6V966.2c0-7.7-0.7-14.5-1.8-20.1s-3.2-10.4-6.1-14c-2.7-3.6-6.3-6.3-10.9-8.1
		s-10-2.7-16.5-2.7c-8.6,0-16.7,2.7-24.7,8.4c-7.9,5.7-15.8,13.6-24,23.8v122.6h-15.6V838.6h15.6v94.1H1255.6z"/>
	<path fill="#FFFFFF" d="M1504.2,1054c-5.4,5.2-10.6,9.5-15.6,12.9c-5,3.4-10,6.1-14.9,7.9c-5,1.8-9.7,3.4-14.5,4.1
		c-4.8,0.7-9.7,1.1-14.7,1.1c-6.6,0-12.9-1.1-18.6-3.4c-5.7-2.3-10.6-5.4-14.7-9.5c-4.1-4.1-7.5-9-9.7-14.9
		c-2.5-5.9-3.6-12.2-3.6-19.5c0-19.2,7.5-34.2,22.2-44.8c14.7-10.6,36.9-16.1,66.3-16.1h17.9c0-7.5-0.5-14.3-1.1-20.4
		c-0.7-6.1-2.5-11.5-5.4-16.1c-2.9-4.5-7-8.1-12.7-10.6c-5.7-2.5-13.1-3.8-22.8-3.8c-14.3,0-24.9,2.5-31.9,7.5
		c-7,5-11.3,12.4-12.7,22.4h-15.4c1.6-15.8,7.2-27.6,16.7-35.3s24-11.5,42.8-11.5c10.6,0,19.5,1.4,26.7,4.3
		c7.2,2.9,13.3,7,17.9,12.4c4.5,5.4,7.9,12,10,19.7c2,7.7,3.2,16.5,3.2,26v109.5h-15.6V1054H1504.2z M1504.2,989.3h-23.5
		c-22.6,0-39.4,3.6-50.7,10.9c-11.1,7.2-16.7,17.6-16.7,31c0,10,3.6,17.6,10.6,23.3c7,5.7,16.5,8.4,28.7,8.4
		c5.4,0,10.4-0.9,15.4-2.7c5-1.8,9.7-4.1,14-7c4.5-2.9,8.4-6.1,12.2-9.7c3.6-3.6,7-7,9.7-10.2v-43.9H1504.2z"/>
	<path fill="#FFFFFF" d="M1620,1077.3c-2.3,0.2-4.5,0.5-6.6,0.7c-2.3,0.2-4.5,0.2-6.6,0.2c-6.8,0-12.2-1.1-16.3-3.2
		c-4.1-2-7.2-5.2-9.3-9.5c-2-4.1-3.6-9.5-4.3-15.6c-0.7-6.3-0.9-13.6-0.9-21.9V925.3h-19.2v-17.4h19.2V864h15.6v43.9h24.7v17.4
		h-24.7v104.1c0,7,0.5,12.4,1.4,16.5c0.9,4.1,2.3,7.2,4.1,9.5c1.8,2.3,4.1,3.6,6.8,4.3c2.7,0.7,5.7,0.9,9,0.9c1.4,0,2.7,0,3.6,0
		s2.3,0,3.6-0.2v17H1620z"/>
</g>
</svg>
