<?xml version="1.0" encoding="utf-8"?>
<!-- Generator: Adobe Illustrator 18.1.1, SVG Export Plug-In . SVG Version: 6.00 Build 0)  -->
<!DOCTYPE svg PUBLIC "-//W3C//DTD SVG 1.1//EN" "http://www.w3.org/Graphics/SVG/1.1/DTD/svg11.dtd">
<svg version="1.1" id="Layer_1" xmlns="http://www.w3.org/2000/svg" xmlns:xlink="http://www.w3.org/1999/xlink" x="0px" y="0px"
	 viewBox="0 0 199.9 224.2" enable-background="new 0 0 199.9 224.2" xml:space="preserve">
<g>
	<path fill-rule="evenodd" clip-rule="evenodd" fill="#EFCAA4" d="M43.1,167.3c0.2-0.2,2.4-5.2,3.9-7.4c1.8-2.6,4.1-4.9,6.4-8.2
		c1.3-1.9,2.1-7,2.1-7s0.9,2.1,2.7,1c1.8-1.2,2.2-4.3,2.2-4.3s2.4,1.2,3.3-0.6c0.9-1.8,0.6-6.4,0.6-6.4s2.5-2.4,4.5-4.7
		c1-1.2,1.7-2.1,2.1-2.8c0.2-0.3,0.4-0.6,0.6-1c0.5-0.1,2.9-0.9,2.7-2.3c-0.1-0.7-0.7-1.4-1.6-2.1c-0.2-0.5-0.5-1-1-1.4
		c-0.5-0.4-1.1-0.5-1.7-0.5c-0.2-0.1-0.3-0.2-0.5-0.4c-1.5-1.3-4.2-2.6-7.5-3.4c-3.3-0.9-6.5-2.9-8.1-2.6c-1.6,0.3-6.7,2.5-9.2,3.6
		c-2.5,1.1-10.4,2.9-11.5,4.7c-1.2,1.7-2.1,2.5-2.3,6.7c-0.2,4.3-0.6,16.5-2.7,23.9c-0.5,1.9-1.9,4.9-3.6,8.4L43.1,167.3z"/>
	<path fill-rule="evenodd" clip-rule="evenodd" fill="#D1AD88" d="M47.1,137.4c0.6-1.4-0.3-2-2.5-1.6c-2.1,0.4-2.2-0.3-0.3-1
		c1.9-0.7,5.5,0.9,3.3-0.6c-2.2-1.5-10.7-7-8.2-6.1c2.5,0.9,4.7,3.3,6.6,1.1c1.9-2.1,0.3-4.1-1.4-5.2c-1.7-1.1-0.5-0.9,1.5-0.4
		c2.1,0.6,5.4-0.6,6.9-1.4c1.4-0.8,0.9-4.8,1.5-3.9c0.7,1,0.6,2,2,2.5c1.4,0.5,3.8,0.8,5,0.7c1.2-0.1,1.1-0.2,1.9-1.5
		c0.7-1.3-0.5,1.8,0.9,1c1.4-0.8,3.9-1.5,5.3-1.8c-2,1.1-4,1.4-10.3,7.1c-2.5,2.3-4.3,4.5-5.8,5.8C50.8,134.4,49,135.3,47.1,137.4z"
		/>
	<path fill-rule="evenodd" clip-rule="evenodd" fill="#AB826D" d="M71.5,125.9c0.4-0.1,2.9-0.8,2.7-2.3c-0.1-0.7-0.8-1.4-1.6-2.1
		C73.2,123.3,72.2,124.9,71.5,125.9z"/>
	<path fill-rule="evenodd" clip-rule="evenodd" fill="#DBBCAD" d="M67.1,126c-1.1-1.2-2.4-2.5-1.5-3.5c0.9-1,3.6-3.6,5.8-1.9
		c2.1,1.7,0.5,4.2-1.1,5.6C68.7,127.5,68.3,127.2,67.1,126z"/>
	<path fill-rule="evenodd" clip-rule="evenodd" fill="#D1AD88" d="M55.5,144.7c0,0,0.9,2.1,2.7,1c1.8-1.2,2.2-4.3,2.2-4.3
		s2.4,1.2,3.3-0.6c0.9-1.8,0.6-6.4,0.6-6.4C62.5,136.1,57,141.4,55.5,144.7z"/>
	<path fill-rule="evenodd" clip-rule="evenodd" fill="#AB826D" d="M62.2,132.4c0.4,0.3,0.7,0.5,1.1,0.7c-0.3-0.3-0.7-0.7-1.1-1.1
		V132.4L62.2,132.4z M62.2,127.8v-0.4c1.3,0.9,2.5,2.3,3.2,3.8C64.4,130,63.2,128.7,62.2,127.8z M59.6,129c0.5,1.3,1.6,2.6,2.7,3.4
		V132C61.4,131.1,60.3,130,59.6,129L59.6,129z M62.2,127.4v0.4c-0.4-0.4-0.8-0.7-1.1-0.9C61.5,126.9,61.9,127.1,62.2,127.4z"/>
	<g>
		<path fill-rule="evenodd" clip-rule="evenodd" fill="#000600" d="M54.5,86.3h20.8c4,0,7.3,3.3,7.3,7.3v55.2c0,4-3.3,7.3-7.3,7.3
			H54.5c-4,0-7.3-3.3-7.3-7.3V93.6C47.1,89.6,50.4,86.3,54.5,86.3z"/>
		<path fill-rule="evenodd" clip-rule="evenodd" fill="#5E5D5D" d="M54.5,86.3h19.9l-27.2,49V93.6C47.1,89.6,50.4,86.3,54.5,86.3z"
			/>
		<path fill-rule="evenodd" clip-rule="evenodd" fill="#FFFFFF" d="M50.4,92.2h29c0.1,0,0.1,0,0.1,0.1v57.4c0,0.1,0,0.1-0.1,0.1h-29
			c-0.1,0-0.1,0-0.1-0.1V92.3C50.3,92.2,50.3,92.2,50.4,92.2z"/>
		<path fill-rule="evenodd" clip-rule="evenodd" fill="#000600" d="M59.5,88h10.8c0.3,0,0.5,0.2,0.5,0.5l0,0c0,0.3-0.2,0.5-0.5,0.5
			H59.5c-0.3,0-0.5-0.2-0.5-0.5l0,0C59,88.3,59.2,88,59.5,88z"/>
		<circle fill-rule="evenodd" clip-rule="evenodd" fill="#5E5D5D" cx="64.9" cy="152.9" r="1.8"/>
	</g>
	<g>
		<path fill-rule="evenodd" clip-rule="evenodd" fill="#EFCAA4" d="M68.8,129.7c1-1.2,1.7-2.1,2.1-2.8c1.1-1.6,2.3-3.2,1.7-5.4
			c-0.2-0.5-0.5-0.9-1-1.3c-1.5-1.2-3.6-0.5-5.2,0.1c-3.9,1.4-7.6,6-8.9,7.3c-1.7,1.6-6.8,6.8-8.2,7.8l7.5,7.2c0,0,2.5-2.7,3.9-4.1
			C63.2,135.9,66.5,132.3,68.8,129.7z"/>
		<path fill-rule="evenodd" clip-rule="evenodd" fill="#FAE2CB" d="M67.1,126c-1.1-1.2-2.4-2.5-1.5-3.5c0.9-1,3.6-3.6,5.8-1.9
			c2.1,1.7,0.5,4.2-1.1,5.6C68.7,127.5,68.3,127.2,67.1,126z"/>
		<path fill-rule="evenodd" clip-rule="evenodd" fill="#D1AD88" d="M62.2,132.4c0.4,0.3,0.7,0.5,1.1,0.7c-0.3-0.3-0.7-0.7-1.1-1.1
			V132.4L62.2,132.4z M62.2,127.8v-0.4c1.3,0.9,2.5,2.3,3.2,3.8C64.4,130,63.2,128.7,62.2,127.8z M59.6,129c0.5,1.3,1.6,2.6,2.7,3.4
			V132C61.4,131.1,60.3,130,59.6,129L59.6,129z M62.2,127.4v0.4c-0.4-0.4-0.8-0.7-1.1-0.9C61.5,127,61.9,127.1,62.2,127.4z"/>
	</g>
	<path fill-rule="evenodd" clip-rule="evenodd" fill="#EFCAA4" d="M56.8,142.5c0,0-2.5,6.7-6,12.6c-3.5,5.9-6.1-18-6.1-18l5.1-2.2
		l5.1,2.8L56.8,142.5z"/>
	<polygon fill-rule="evenodd" clip-rule="evenodd" fill="#FFFFFF" points="20.3,165.9 23,158.6 45.4,166.4 43.3,173 	"/>
	<polygon fill-rule="evenodd" clip-rule="evenodd" fill="#3676DD" points="19.8,162.6 45.5,170.5 29.2,224.2 1,224.2 	"/>
	<polygon fill-rule="evenodd" clip-rule="evenodd" fill="#4385F5" points="13.2,223.9 30,171.7 30.8,169.2 31.8,166.3 21.7,163.2 
		20.3,162.7 18.8,162.3 0,223.9 	"/>
	<path fill-rule="evenodd" clip-rule="evenodd" fill="#EFCAA4" d="M156.9,167.3c-0.2-0.2-2.4-5.2-3.9-7.4c-1.8-2.6-4.1-4.9-6.4-8.2
		c-1.3-1.9-2.1-7-2.1-7s-0.9,2.1-2.7,1c-1.8-1.2-2.2-4.3-2.2-4.3s-2.4,1.2-3.3-0.6c-0.9-1.8-0.6-6.4-0.6-6.4s-2.5-2.4-4.5-4.7
		c-1-1.2-1.7-2.1-2.1-2.8c-0.2-0.3-0.4-0.6-0.6-1c-0.5-0.1-2.9-0.9-2.7-2.3c0.1-0.7,0.7-1.4,1.6-2.1c0.2-0.5,0.5-1,1-1.4
		c0.5-0.4,1.1-0.5,1.7-0.5c0.2-0.1,0.3-0.2,0.5-0.4c1.5-1.3,4.2-2.6,7.5-3.4c3.3-0.9,6.5-2.9,8.1-2.6c1.6,0.3,6.7,2.5,9.2,3.6
		c2.5,1.1,10.4,2.9,11.5,4.7c1.2,1.7,2.1,2.5,2.3,6.7c0.2,4.3,0.6,16.5,2.7,23.9c0.5,1.9,1.9,4.9,3.6,8.4L156.9,167.3z"/>
	<path fill-rule="evenodd" clip-rule="evenodd" fill="#D1AD88" d="M153,137.4c-0.6-1.4,0.3-2,2.5-1.6c2.1,0.4,2.2-0.3,0.3-1
		c-1.9-0.7-5.5,0.9-3.3-0.6c2.2-1.5,10.7-7,8.2-6.1c-2.5,0.9-4.7,3.3-6.6,1.1c-1.9-2.1-0.3-4.1,1.4-5.2c1.7-1.1,0.5-0.9-1.5-0.4
		c-2.1,0.6-5.4-0.6-6.9-1.4c-1.4-0.8-0.9-4.8-1.5-3.9c-0.7,1-0.6,2-2,2.5c-1.4,0.5-3.8,0.8-5,0.7c-1.2-0.1-1.1-0.2-1.9-1.5
		c-0.7-1.3,0.5,1.8-0.9,1c-1.4-0.8-3.9-1.5-5.3-1.8c2,1.1,4,1.4,10.3,7.1c2.5,2.3,4.3,4.5,5.8,5.8C149.3,134.4,151,135.3,153,137.4z
		"/>
	<path fill-rule="evenodd" clip-rule="evenodd" fill="#AB826D" d="M128.6,125.9c-0.4-0.1-2.9-0.8-2.7-2.3c0.1-0.7,0.8-1.4,1.6-2.1
		C126.9,123.3,127.9,124.9,128.6,125.9z"/>
	<path fill-rule="evenodd" clip-rule="evenodd" fill="#DBBCAD" d="M132.9,126c1.1-1.2,2.4-2.5,1.5-3.5c-0.9-1-3.6-3.6-5.8-1.9
		c-2.1,1.7-0.5,4.2,1.1,5.6C131.4,127.5,131.8,127.2,132.9,126z"/>
	<path fill-rule="evenodd" clip-rule="evenodd" fill="#D1AD88" d="M144.6,144.7c0,0-0.9,2.1-2.7,1c-1.8-1.2-2.2-4.3-2.2-4.3
		s-2.4,1.2-3.3-0.6c-0.9-1.8-0.6-6.4-0.6-6.4C137.6,136.1,143.1,141.4,144.6,144.7z"/>
	<path fill-rule="evenodd" clip-rule="evenodd" fill="#AB826D" d="M137.8,132.4V132c-0.4,0.4-0.8,0.8-1.1,1.1
		C137.1,133,137.5,132.7,137.8,132.4L137.8,132.4z M134.7,131.2c0.6-1.5,1.9-3,3.2-3.8v0.4C136.9,128.7,135.7,130,134.7,131.2z
		 M140.5,129c-0.7,1-1.8,2.1-2.7,3v0.4C138.9,131.6,140,130.3,140.5,129L140.5,129z M138.9,126.8c-0.3,0.2-0.7,0.6-1.1,0.9v-0.4
		C138.2,127.1,138.6,126.9,138.9,126.8z"/>
	<g>
		<path fill-rule="evenodd" clip-rule="evenodd" fill="#000600" d="M145.6,86.3h-20.8c-4,0-7.3,3.3-7.3,7.3v55.2
			c0,4,3.3,7.3,7.3,7.3h20.8c4,0,7.3-3.3,7.3-7.3V93.6C152.9,89.6,149.6,86.3,145.6,86.3z"/>
		<path fill-rule="evenodd" clip-rule="evenodd" fill="#5E5D5D" d="M145.6,86.3h-19.9l27.2,49V93.6
			C152.9,89.6,149.6,86.3,145.6,86.3z"/>
		<path fill-rule="evenodd" clip-rule="evenodd" fill="#FFFFFF" d="M149.7,92.2h-29c-0.1,0-0.1,0-0.1,0.1v57.4c0,0.1,0,0.1,0.1,0.1
			h29c0.1,0,0.1,0,0.1-0.1V92.3C149.8,92.2,149.8,92.2,149.7,92.2z"/>
		<path fill-rule="evenodd" clip-rule="evenodd" fill="#000600" d="M140.6,88h-10.8c-0.3,0-0.5,0.2-0.5,0.5l0,0
			c0,0.3,0.2,0.5,0.5,0.5h10.8c0.3,0,0.5-0.2,0.5-0.5l0,0C141.1,88.3,140.9,88,140.6,88z"/>
		<circle fill-rule="evenodd" clip-rule="evenodd" fill="#5E5D5D" cx="135.2" cy="152.9" r="1.8"/>
	</g>
	<g>
		<path fill-rule="evenodd" clip-rule="evenodd" fill="#EFCAA4" d="M131.3,129.7c-1-1.2-1.7-2.1-2.1-2.8c-1.1-1.6-2.3-3.2-1.7-5.4
			c0.2-0.5,0.5-0.9,1-1.3c1.5-1.2,3.6-0.5,5.2,0.1c3.9,1.4,7.6,6,8.9,7.3c1.7,1.6,6.8,6.8,8.2,7.8l-7.5,7.2c0,0-2.5-2.7-3.9-4.1
			C136.9,135.9,133.6,132.3,131.3,129.7z"/>
		<path fill-rule="evenodd" clip-rule="evenodd" fill="#FAE2CB" d="M132.9,126c1.1-1.2,2.4-2.5,1.5-3.5c-0.9-1-3.6-3.6-5.8-1.9
			c-2.1,1.7-0.5,4.2,1.1,5.6C131.4,127.5,131.8,127.2,132.9,126z"/>
		<path fill-rule="evenodd" clip-rule="evenodd" fill="#D1AD88" d="M137.8,132.4V132c-0.4,0.4-0.8,0.8-1.1,1.1
			C137.1,133,137.5,132.7,137.8,132.4L137.8,132.4z M134.7,131.2c0.6-1.5,1.9-3,3.2-3.8v0.4C136.9,128.7,135.7,130,134.7,131.2z
			 M140.5,129c-0.7,1-1.8,2.1-2.7,3v0.4C138.9,131.6,140,130.3,140.5,129L140.5,129z M138.9,126.8c-0.3,0.2-0.7,0.6-1.1,0.9v-0.4
			C138.2,127.1,138.6,127,138.9,126.8z"/>
	</g>
	<path fill-rule="evenodd" clip-rule="evenodd" fill="#EFCAA4" d="M143.3,142.5c0,0,2.5,6.7,6,12.6c3.5,5.9,6.1-18,6.1-18l-5.1-2.2
		l-5.1,2.8L143.3,142.5z"/>
	<polygon fill-rule="evenodd" clip-rule="evenodd" fill="#FFFFFF" points="179.8,165.9 177.1,158.6 154.7,166.4 156.8,173 	"/>
	<polygon fill-rule="evenodd" clip-rule="evenodd" fill="#3DDFEE" points="180.2,162.6 154.6,170.5 170.9,224.2 199.1,224.2 	"/>
	<polygon fill-rule="evenodd" clip-rule="evenodd" fill="#3ECCD8" points="186.7,224 169.9,171.7 169.1,169.2 168.1,166.3 
		178.2,163.2 179.6,162.8 181.1,162.3 199.9,224 	"/>
	<path fill-rule="evenodd" clip-rule="evenodd" fill="#F2F2F2" d="M168.1,52.9c0-14-11.3-25.3-25.3-25.3c-0.7,0-1.4,0-2.1,0.1
		c-3.3-8.9-11.8-15.2-21.8-15.2c-2.5,0-5,0.4-7.3,1.2C107.2,5.5,98.5,0,88.6,0C74.1,0,62.4,11.7,62.4,26.2c0,4,0.9,7.8,2.5,11.3
		c-4.1-3.6-9.5-5.8-15.3-5.8c-12.9,0-23.3,10.4-23.3,23.3c0,12.9,10.4,23.3,23.3,23.3c0.2,0,0.3,0,0.5,0v0h95.4v-0.1
		C158.2,76.8,168.1,66,168.1,52.9z"/>
	<g>
		<path fill="#F17471" d="M65.5,70.6c0,0,0-0.4,0-1.1c0-0.8,0.1-1.9,0.3-3.3c0.2-1.4,0.4-3.2,0.9-5.1c0.5-1.9,1.2-4.1,2.2-6.3
			c1-2.2,2.3-4.5,4-6.7c1.7-2.2,3.9-4.2,6.4-5.8c2.5-1.6,5.4-2.9,8.5-3.8c3.1-0.9,6.4-1.3,9.7-1.4l1.2,0l0.7,0l0.3,0l0.3,0
			c0.8,0,1.6,0.1,2.4,0.1c1.6,0.2,3.2,0.4,4.8,0.8c1.6,0.4,3.1,0.8,4.6,1.4c0.4,0.1,0.7,0.3,1.1,0.4c0.4,0.1,0.7,0.3,1.1,0.5
			c0.3,0.2,0.7,0.3,1,0.5c0.3,0.2,0.7,0.4,1,0.5c2.7,1.4,5,3.3,7,5.2c0.3,0.3,0.5,0.5,0.8,0.8c0.2,0.3,0.4,0.5,0.6,0.7
			c0.8,0.9,1.4,1.8,1.9,2.4c0.1,0.1,0.2,0.3,0.3,0.4c0.1,0.1,0.1,0.2,0.2,0.3c0.1,0.2,0.2,0.3,0.2,0.3s-0.6,0.1-1.5,0.3
			c-0.9,0.2-2,0.5-3.2,0.9c-1.1,0.4-2.2,0.7-3,1.1c-0.8,0.3-1.4,0.6-1.4,0.6c0.4,0.1,0.8,0.3,1.2,0.4l0.6,0.2
			c0.2,0.1,0.4,0.2,0.6,0.3c0.8,0.4,1.6,0.8,2.4,1.3l0.6,0.4c0.2,0.1,0.4,0.3,0.6,0.4l1.1,0.9c0.2,0.2,0.4,0.3,0.6,0.5l0.5,0.5
			l1.1,1c2.9,2.9,5.5,6.5,7.6,10.5c0.3-1.1,0.6-2.2,0.9-3.3c0.3-1.1,0.5-2.3,0.7-3.5c0.2-1.2,0.3-2.4,0.5-3.6
			c0.1-0.6,0.1-1.2,0.1-1.8l0.1-0.9c0-0.3,0-0.6,0-0.9l0-1.9l0-1c0-0.3,0-0.6-0.1-1c-0.1-0.7-0.1-1.3-0.2-2c0-0.3-0.1-0.7-0.1-1
			l-0.2-1c-0.2-1.4-0.6-2.7-0.9-4.1c-0.1-0.3-0.2-0.7-0.3-1l-0.3-1c-0.2-0.7-0.5-1.4-0.8-2c0,0-0.2,0.6-0.6,1.5
			c-0.4,0.9-0.9,2-1.5,3.2c-0.6,1.1-1.2,2.2-1.6,3c-0.5,0.8-0.8,1.3-0.8,1.3s-0.1-0.1-0.2-0.3c-0.1-0.1-0.1-0.2-0.2-0.3
			c-0.1-0.1-0.2-0.3-0.3-0.4c-0.5-0.6-1.1-1.6-2.1-2.7c-0.2-0.3-0.5-0.5-0.7-0.8c-0.3-0.3-0.6-0.6-0.8-0.9c-2.2-2.2-4.8-4.2-7.7-5.8
			c-0.4-0.2-0.7-0.4-1.1-0.6c-0.4-0.2-0.8-0.4-1.2-0.5c-0.4-0.2-0.8-0.4-1.2-0.5c-0.4-0.2-0.8-0.3-1.2-0.5c-1.6-0.6-3.3-1.1-5-1.5
			c-1.7-0.4-3.5-0.7-5.2-0.9c-0.9-0.1-1.8-0.2-2.7-0.2l-0.3,0l-0.4,0l-0.6,0l-1.3,0.1c-3.5,0.2-7.1,0.6-10.5,1.6
			c-3.4,1-6.6,2.4-9.5,4.2c-2.9,1.8-5.3,4.1-7.2,6.6c-1.9,2.4-3.4,5-4.5,7.4c-1.1,2.5-1.8,4.8-2.4,6.9c-0.5,2.1-0.8,4-1,5.5
			c-0.2,1.5-0.2,2.8-0.3,3.6c0,0.8,0,1.3,0,1.3L65.5,70.6z"/>
	</g>
</g>
</svg>
