<?xml version="1.0" encoding="utf-8"?>
<!-- Generator: Adobe Illustrator 18.1.1, SVG Export Plug-In . SVG Version: 6.00 Build 0)  -->
<svg version="1.1" id="Layer_1" xmlns="http://www.w3.org/2000/svg" xmlns:xlink="http://www.w3.org/1999/xlink" x="0px" y="0px"
	 viewBox="1050.5 449.7 153.5 154" enable-background="new 1050.5 449.7 153.5 154" xml:space="preserve">
<path d="M1149.1,481.5c-0.5-0.1-1.1-0.2-1.6-0.3l-40.4,0c-4.6,0.1-8.1,3.6-8.3,8.2l0,66.8l-0.1,10c0.1,3.7,2.6,7,6,7.9
	c0.6,0.2,1.5,0.4,2.2,0.4l40.4,0c4.5,0.1,8.2-3.7,8.3-8.3l0.1-76.9C1155.6,485.5,1152.9,482.4,1149.1,481.5z"/>
<path fill="#FFFFFF" d="M1127.1,567.5c-1.6,0-3.1-1.3-3.1-2.9c0-1.6,1.4-3.1,3-3.1c0.2,0,0.4,0.1,0.6,0.1c1.4,0.3,2.5,1.5,2.5,2.9
	C1130.1,566.1,1128.7,567.5,1127.1,567.5z"/>
<path fill="#FFFFFF" d="M1102.9,554.2l0-64.5c0.2-2.2,1.9-4.1,4.1-3.9l40.4,0c0.1-0.1,0.3-0.1,0.5-0.1c0.2,0,0.4,0.1,0.6,0.2
	c1.7,0.5,2.9,2,2.9,3.8l0,64.5L1102.9,554.2z"/>
<g>
	<ellipse fill="#FFCB00" cx="1164.6" cy="477" rx="39.3" ry="27.3"/>
	<path fill="#FFCB00" d="M1135.8,495.6c0,0,6.6,5,4.2,12.3c-0.8,2.6-7.1,8.7-6.5,8.9c0,0,4-2.1,12.6-7.1c5.5-3.2,14.1-4.6,24.9-6.1
		l-29-17.4L1135.8,495.6z"/>
</g>
<g>
	<circle fill="#FFFFFF" cx="1147.2" cy="477" r="5.8"/>
	<circle fill="#FFFFFF" cx="1164.6" cy="477" r="5.8"/>
	<circle fill="#FFFFFF" cx="1182" cy="477" r="5.8"/>
</g>
<image overflow="visible" width="564" height="423" xlink:href="4F19FB1A.jpg"  transform="matrix(6.0088 0 0 6.0088 -1753.479 -2768.3594)">
</image>
<ellipse opacity="0.1" cx="1127.2" cy="598.8" rx="38.3" ry="4.9"/>
</svg>
