<?xml version="1.0" encoding="utf-8"?>
<!-- Generator: Adobe Illustrator 18.1.1, SVG Export Plug-In . SVG Version: 6.00 Build 0)  -->
<svg version="1.1" id="Layer_1" xmlns="http://www.w3.org/2000/svg" xmlns:xlink="http://www.w3.org/1999/xlink" x="0px" y="0px"
	 viewBox="441.6 21.7 1036.8 1036.7" enable-background="new 441.6 21.7 1036.8 1036.7" xml:space="preserve">
<g id="surface1">
	<g>
		<path fill="#54C5BA" d="M960,21.6c-285.9,0-518.4,232.5-518.4,518.4s232.5,518.4,518.4,518.4s518.4-232.5,518.4-518.4
			S1245.9,21.6,960,21.6z M1132.8,410.4c35.8,0,64.8,29,64.8,64.8s-29,64.8-64.8,64.8s-64.8-29-64.8-64.8S1097,410.4,1132.8,410.4z
			 M787.2,410.4c35.8,0,64.8,29,64.8,64.8S823,540,787.2,540s-64.8-29-64.8-64.8S751.4,410.4,787.2,410.4z M1258.3,682.2
			c-4.6,6.5-116.5,160.2-298.3,160.2S666.3,688.7,661.7,682.2c-6.9-9.7-4.7-23.2,5-30.1c9.7-6.9,23.2-4.7,30.1,5
			c1,1.4,104,142.2,263.3,142.2s262.2-140.7,263.3-142.2c6.9-9.7,20.4-11.9,30.1-5C1263.1,659,1265.4,672.5,1258.3,682.2z"/>
	</g>
</g>
</svg>
